# xmcd
#
# Track frame offsets:
#	150
#	21594
#	48263
#	67327
#	83620
#	105614
#	125540
#	143020
#	165744
#	195610
#	215798
#	233224
#	250436
#	266198
#	283896
#	305452
#	327727
#
# Disc length: 4640 seconds
#
# Revision: 0
# Processed by: cddbd v1.5.1PL0 Copyright (c) Steve Scherf et al.
# Submitted via: EasyCDDAExtractor 8.2.3.1
#
DISCID=11121e11
DTITLE=Sting - Best 2000
DYEAR=1900
DGENRE=Pop
TTITLE0=Desert Rose
TTITLE1=When we Dance
TTITLE2=If Love Somebody Let Them Free
TTITLE3=Fields Of Gold
TTITLE4=All This Time
TTITLE5=Englishman In New York
TTITLE6=Mad About You
TTITLE7=It's Probably Me
TTITLE8=Let Your Soul Be Your Pilot
TTITLE9=If I Ever Loose My Faith In You
TTITLE10=Fragile
TTITLE11=We'll Be Together
TTITLE12=Moon Over Bourbon Street
TTITLE13=Russians
TTITLE14=Why Should I Cry For You
TTITLE15=This Cowboy Song
TTITLE16=Brand New Day
EXTD=
EXTT0=
EXTT1=
EXTT2=
EXTT3=
EXTT4=
EXTT5=
EXTT6=
EXTT7=
EXTT8=
EXTT9=
EXTT10=
EXTT11=
EXTT12=
EXTT13=
EXTT14=
EXTT15=
EXTT16=
PLAYORDER=
